<mxfile host="app.diagrams.net" agent="Mozilla/5.0 (Windows NT 10.0; Win64; x64) AppleWebKit/537.36 (KHTML, like Gecko) Chrome/131.0.0.0 Safari/537.36 OPR/116.0.0.0" version="26.0.11">
  <diagram name="Strona-1" id="-jq5mkzBrGNb1YPOfLhV">
    <mxGraphModel dx="2843" dy="1142" grid="1" gridSize="10" guides="1" tooltips="1" connect="1" arrows="1" fold="1" page="1" pageScale="1" pageWidth="827" pageHeight="1169" math="0" shadow="0">
      <root>
        <mxCell id="0" />
        <mxCell id="1" parent="0" />
        <mxCell id="qQ9OFW5MsJUulb6kBdxp-5" value="" style="edgeStyle=orthogonalEdgeStyle;rounded=0;orthogonalLoop=1;jettySize=auto;html=1;" edge="1" parent="1" source="qQ9OFW5MsJUulb6kBdxp-1" target="qQ9OFW5MsJUulb6kBdxp-3">
          <mxGeometry relative="1" as="geometry" />
        </mxCell>
        <mxCell id="qQ9OFW5MsJUulb6kBdxp-1" value="Warstwa perezentacji" style="rounded=1;whiteSpace=wrap;html=1;" vertex="1" parent="1">
          <mxGeometry x="130" y="150" width="170" height="60" as="geometry" />
        </mxCell>
        <mxCell id="qQ9OFW5MsJUulb6kBdxp-6" value="" style="edgeStyle=orthogonalEdgeStyle;rounded=0;orthogonalLoop=1;jettySize=auto;html=1;" edge="1" parent="1" source="qQ9OFW5MsJUulb6kBdxp-3" target="qQ9OFW5MsJUulb6kBdxp-4">
          <mxGeometry relative="1" as="geometry" />
        </mxCell>
        <mxCell id="qQ9OFW5MsJUulb6kBdxp-3" value="Warstwa logiki biznesowej" style="rounded=1;whiteSpace=wrap;html=1;" vertex="1" parent="1">
          <mxGeometry x="130" y="240" width="170" height="60" as="geometry" />
        </mxCell>
        <mxCell id="qQ9OFW5MsJUulb6kBdxp-4" value="Warstwa danych" style="rounded=1;whiteSpace=wrap;html=1;" vertex="1" parent="1">
          <mxGeometry x="130" y="330" width="170" height="60" as="geometry" />
        </mxCell>
        <mxCell id="qQ9OFW5MsJUulb6kBdxp-16" style="edgeStyle=orthogonalEdgeStyle;rounded=0;orthogonalLoop=1;jettySize=auto;html=1;" edge="1" parent="1" source="qQ9OFW5MsJUulb6kBdxp-7" target="qQ9OFW5MsJUulb6kBdxp-10">
          <mxGeometry relative="1" as="geometry" />
        </mxCell>
        <mxCell id="qQ9OFW5MsJUulb6kBdxp-7" value="&amp;gt; Stan porduktu sprzedany Sprzedany_&amp;nbsp;" style="shape=parallelogram;perimeter=parallelogramPerimeter;whiteSpace=wrap;html=1;fixedSize=1;" vertex="1" parent="1">
          <mxGeometry x="364" y="150" width="194" height="60" as="geometry" />
        </mxCell>
        <mxCell id="qQ9OFW5MsJUulb6kBdxp-9" value="&amp;gt; 10 sztuk_&amp;nbsp;" style="shape=parallelogram;perimeter=parallelogramPerimeter;whiteSpace=wrap;html=1;fixedSize=1;" vertex="1" parent="1">
          <mxGeometry x="590" y="150" width="146" height="60" as="geometry" />
        </mxCell>
        <mxCell id="qQ9OFW5MsJUulb6kBdxp-14" style="edgeStyle=orthogonalEdgeStyle;rounded=0;orthogonalLoop=1;jettySize=auto;html=1;entryX=0;entryY=0.5;entryDx=0;entryDy=0;" edge="1" parent="1" source="qQ9OFW5MsJUulb6kBdxp-10" target="qQ9OFW5MsJUulb6kBdxp-13">
          <mxGeometry relative="1" as="geometry" />
        </mxCell>
        <mxCell id="qQ9OFW5MsJUulb6kBdxp-10" value="podaj informację o stanie produktu" style="shape=process;whiteSpace=wrap;html=1;backgroundOutline=1;" vertex="1" parent="1">
          <mxGeometry x="386" y="240" width="150" height="60" as="geometry" />
        </mxCell>
        <mxCell id="qQ9OFW5MsJUulb6kBdxp-21" style="edgeStyle=orthogonalEdgeStyle;rounded=0;orthogonalLoop=1;jettySize=auto;html=1;entryX=0.5;entryY=1;entryDx=0;entryDy=0;" edge="1" parent="1" source="qQ9OFW5MsJUulb6kBdxp-12" target="qQ9OFW5MsJUulb6kBdxp-9">
          <mxGeometry relative="1" as="geometry" />
        </mxCell>
        <mxCell id="qQ9OFW5MsJUulb6kBdxp-12" value="podaj ilość produktów na magazynie" style="shape=process;whiteSpace=wrap;html=1;backgroundOutline=1;" vertex="1" parent="1">
          <mxGeometry x="588" y="240" width="150" height="60" as="geometry" />
        </mxCell>
        <mxCell id="qQ9OFW5MsJUulb6kBdxp-20" style="edgeStyle=orthogonalEdgeStyle;rounded=0;orthogonalLoop=1;jettySize=auto;html=1;entryX=0.5;entryY=1;entryDx=0;entryDy=0;" edge="1" parent="1" source="qQ9OFW5MsJUulb6kBdxp-13" target="qQ9OFW5MsJUulb6kBdxp-12">
          <mxGeometry relative="1" as="geometry">
            <Array as="points">
              <mxPoint x="663" y="360" />
            </Array>
          </mxGeometry>
        </mxCell>
        <mxCell id="qQ9OFW5MsJUulb6kBdxp-13" value="Baza danych" style="ellipse;whiteSpace=wrap;html=1;" vertex="1" parent="1">
          <mxGeometry x="510" y="320" width="120" height="80" as="geometry" />
        </mxCell>
        <mxCell id="qQ9OFW5MsJUulb6kBdxp-22" value="Architektura trójwarstwowa" style="text;html=1;align=center;verticalAlign=middle;whiteSpace=wrap;rounded=0;" vertex="1" parent="1">
          <mxGeometry x="330" y="450" width="160" height="30" as="geometry" />
        </mxCell>
        <mxCell id="qQ9OFW5MsJUulb6kBdxp-25" style="edgeStyle=orthogonalEdgeStyle;rounded=0;orthogonalLoop=1;jettySize=auto;html=1;exitX=1;exitY=0.25;exitDx=0;exitDy=0;entryX=0;entryY=0.25;entryDx=0;entryDy=0;" edge="1" parent="1" source="qQ9OFW5MsJUulb6kBdxp-23" target="qQ9OFW5MsJUulb6kBdxp-24">
          <mxGeometry relative="1" as="geometry" />
        </mxCell>
        <mxCell id="qQ9OFW5MsJUulb6kBdxp-30" value="Initial request" style="edgeLabel;html=1;align=center;verticalAlign=middle;resizable=0;points=[];fontSize=15;" vertex="1" connectable="0" parent="qQ9OFW5MsJUulb6kBdxp-25">
          <mxGeometry x="-0.0736" y="-1" relative="1" as="geometry">
            <mxPoint as="offset" />
          </mxGeometry>
        </mxCell>
        <mxCell id="qQ9OFW5MsJUulb6kBdxp-27" style="edgeStyle=orthogonalEdgeStyle;rounded=0;orthogonalLoop=1;jettySize=auto;html=1;exitX=1;exitY=0.75;exitDx=0;exitDy=0;entryX=-0.017;entryY=0.572;entryDx=0;entryDy=0;entryPerimeter=0;" edge="1" parent="1" source="qQ9OFW5MsJUulb6kBdxp-23" target="qQ9OFW5MsJUulb6kBdxp-24">
          <mxGeometry relative="1" as="geometry">
            <Array as="points">
              <mxPoint x="240" y="860" />
            </Array>
          </mxGeometry>
        </mxCell>
        <mxCell id="qQ9OFW5MsJUulb6kBdxp-32" value="From post" style="edgeLabel;html=1;align=center;verticalAlign=middle;resizable=0;points=[];fontSize=15;" vertex="1" connectable="0" parent="qQ9OFW5MsJUulb6kBdxp-27">
          <mxGeometry x="0.0783" y="3" relative="1" as="geometry">
            <mxPoint x="8" as="offset" />
          </mxGeometry>
        </mxCell>
        <mxCell id="qQ9OFW5MsJUulb6kBdxp-23" value="Client page reload" style="rounded=1;whiteSpace=wrap;html=1;fontSize=15;" vertex="1" parent="1">
          <mxGeometry x="120" y="700" width="120" height="280" as="geometry" />
        </mxCell>
        <mxCell id="qQ9OFW5MsJUulb6kBdxp-26" style="edgeStyle=orthogonalEdgeStyle;rounded=0;orthogonalLoop=1;jettySize=auto;html=1;exitX=0;exitY=0.5;exitDx=0;exitDy=0;entryX=0.986;entryY=0.425;entryDx=0;entryDy=0;entryPerimeter=0;" edge="1" parent="1" source="qQ9OFW5MsJUulb6kBdxp-24" target="qQ9OFW5MsJUulb6kBdxp-23">
          <mxGeometry relative="1" as="geometry">
            <Array as="points">
              <mxPoint x="450" y="820" />
              <mxPoint x="240" y="820" />
            </Array>
          </mxGeometry>
        </mxCell>
        <mxCell id="qQ9OFW5MsJUulb6kBdxp-31" value="HTML DOCUMENT" style="edgeLabel;html=1;align=center;verticalAlign=middle;resizable=0;points=[];fontSize=15;" vertex="1" connectable="0" parent="qQ9OFW5MsJUulb6kBdxp-26">
          <mxGeometry x="0.1755" y="-4" relative="1" as="geometry">
            <mxPoint x="12" y="4" as="offset" />
          </mxGeometry>
        </mxCell>
        <mxCell id="qQ9OFW5MsJUulb6kBdxp-24" value="Server" style="rounded=1;whiteSpace=wrap;html=1;fontSize=15;" vertex="1" parent="1">
          <mxGeometry x="510" y="700" width="120" height="280" as="geometry" />
        </mxCell>
        <mxCell id="qQ9OFW5MsJUulb6kBdxp-28" style="edgeStyle=orthogonalEdgeStyle;rounded=0;orthogonalLoop=1;jettySize=auto;html=1;entryX=1;entryY=0.75;entryDx=0;entryDy=0;exitX=0;exitY=0.75;exitDx=0;exitDy=0;" edge="1" parent="1" source="qQ9OFW5MsJUulb6kBdxp-24" target="qQ9OFW5MsJUulb6kBdxp-23">
          <mxGeometry relative="1" as="geometry">
            <mxPoint x="450" y="957" as="sourcePoint" />
            <Array as="points" />
          </mxGeometry>
        </mxCell>
        <mxCell id="qQ9OFW5MsJUulb6kBdxp-33" value="&lt;span style=&quot;font-size: 15px;&quot;&gt;HTML DOCUMENT&lt;/span&gt;" style="edgeLabel;html=1;align=center;verticalAlign=middle;resizable=0;points=[];" vertex="1" connectable="0" parent="qQ9OFW5MsJUulb6kBdxp-28">
          <mxGeometry x="0.0214" y="-4" relative="1" as="geometry">
            <mxPoint y="4" as="offset" />
          </mxGeometry>
        </mxCell>
        <mxCell id="qQ9OFW5MsJUulb6kBdxp-29" value="" style="shape=image;html=1;verticalAlign=top;verticalLabelPosition=bottom;labelBackgroundColor=#ffffff;imageAspect=0;aspect=fixed;image=https://cdn1.iconfinder.com/data/icons/ionicons-sharp-vol-2/512/reload-sharp-128.png" vertex="1" parent="1">
          <mxGeometry x="146.5" y="870" width="67" height="67" as="geometry" />
        </mxCell>
        <mxCell id="qQ9OFW5MsJUulb6kBdxp-34" value="&lt;font style=&quot;font-size: 15px;&quot;&gt;1.&amp;nbsp; Traditional page lifecycle&lt;/font&gt;" style="text;html=1;align=center;verticalAlign=middle;whiteSpace=wrap;rounded=0;" vertex="1" parent="1">
          <mxGeometry x="280" y="1010" width="210" height="30" as="geometry" />
        </mxCell>
        <mxCell id="qQ9OFW5MsJUulb6kBdxp-35" style="edgeStyle=orthogonalEdgeStyle;rounded=0;orthogonalLoop=1;jettySize=auto;html=1;exitX=1;exitY=0.25;exitDx=0;exitDy=0;entryX=0;entryY=0.25;entryDx=0;entryDy=0;" edge="1" parent="1" source="qQ9OFW5MsJUulb6kBdxp-39" target="qQ9OFW5MsJUulb6kBdxp-42">
          <mxGeometry relative="1" as="geometry" />
        </mxCell>
        <mxCell id="qQ9OFW5MsJUulb6kBdxp-36" value="Initial request" style="edgeLabel;html=1;align=center;verticalAlign=middle;resizable=0;points=[];fontSize=15;" vertex="1" connectable="0" parent="qQ9OFW5MsJUulb6kBdxp-35">
          <mxGeometry x="-0.0736" y="-1" relative="1" as="geometry">
            <mxPoint as="offset" />
          </mxGeometry>
        </mxCell>
        <mxCell id="qQ9OFW5MsJUulb6kBdxp-37" style="edgeStyle=orthogonalEdgeStyle;rounded=0;orthogonalLoop=1;jettySize=auto;html=1;exitX=1;exitY=0.75;exitDx=0;exitDy=0;entryX=-0.017;entryY=0.572;entryDx=0;entryDy=0;entryPerimeter=0;" edge="1" parent="1" source="qQ9OFW5MsJUulb6kBdxp-39" target="qQ9OFW5MsJUulb6kBdxp-42">
          <mxGeometry relative="1" as="geometry">
            <Array as="points">
              <mxPoint x="250" y="1250" />
            </Array>
          </mxGeometry>
        </mxCell>
        <mxCell id="qQ9OFW5MsJUulb6kBdxp-38" value="AJAX" style="edgeLabel;html=1;align=center;verticalAlign=middle;resizable=0;points=[];fontSize=15;" vertex="1" connectable="0" parent="qQ9OFW5MsJUulb6kBdxp-37">
          <mxGeometry x="0.0783" y="3" relative="1" as="geometry">
            <mxPoint x="8" as="offset" />
          </mxGeometry>
        </mxCell>
        <mxCell id="qQ9OFW5MsJUulb6kBdxp-39" value="Client" style="rounded=1;whiteSpace=wrap;html=1;fontSize=15;" vertex="1" parent="1">
          <mxGeometry x="130" y="1090" width="120" height="280" as="geometry" />
        </mxCell>
        <mxCell id="qQ9OFW5MsJUulb6kBdxp-40" style="edgeStyle=orthogonalEdgeStyle;rounded=0;orthogonalLoop=1;jettySize=auto;html=1;exitX=0;exitY=0.5;exitDx=0;exitDy=0;entryX=0.986;entryY=0.425;entryDx=0;entryDy=0;entryPerimeter=0;" edge="1" parent="1" source="qQ9OFW5MsJUulb6kBdxp-42" target="qQ9OFW5MsJUulb6kBdxp-39">
          <mxGeometry relative="1" as="geometry">
            <Array as="points">
              <mxPoint x="460" y="1210" />
              <mxPoint x="250" y="1210" />
            </Array>
          </mxGeometry>
        </mxCell>
        <mxCell id="qQ9OFW5MsJUulb6kBdxp-41" value="HTML DOCUMENT" style="edgeLabel;html=1;align=center;verticalAlign=middle;resizable=0;points=[];fontSize=15;" vertex="1" connectable="0" parent="qQ9OFW5MsJUulb6kBdxp-40">
          <mxGeometry x="0.1755" y="-4" relative="1" as="geometry">
            <mxPoint x="12" y="4" as="offset" />
          </mxGeometry>
        </mxCell>
        <mxCell id="qQ9OFW5MsJUulb6kBdxp-42" value="Server" style="rounded=1;whiteSpace=wrap;html=1;fontSize=15;" vertex="1" parent="1">
          <mxGeometry x="520" y="1090" width="120" height="280" as="geometry" />
        </mxCell>
        <mxCell id="qQ9OFW5MsJUulb6kBdxp-43" style="edgeStyle=orthogonalEdgeStyle;rounded=0;orthogonalLoop=1;jettySize=auto;html=1;entryX=1;entryY=0.75;entryDx=0;entryDy=0;exitX=0;exitY=0.75;exitDx=0;exitDy=0;" edge="1" parent="1" source="qQ9OFW5MsJUulb6kBdxp-42" target="qQ9OFW5MsJUulb6kBdxp-39">
          <mxGeometry relative="1" as="geometry">
            <mxPoint x="460" y="1347" as="sourcePoint" />
            <Array as="points" />
          </mxGeometry>
        </mxCell>
        <mxCell id="qQ9OFW5MsJUulb6kBdxp-44" value="&lt;span style=&quot;font-size: 15px;&quot;&gt;JSON&lt;/span&gt;" style="edgeLabel;html=1;align=center;verticalAlign=middle;resizable=0;points=[];" vertex="1" connectable="0" parent="qQ9OFW5MsJUulb6kBdxp-43">
          <mxGeometry x="0.0214" y="-4" relative="1" as="geometry">
            <mxPoint y="4" as="offset" />
          </mxGeometry>
        </mxCell>
        <mxCell id="qQ9OFW5MsJUulb6kBdxp-46" value="&lt;font style=&quot;font-size: 15px;&quot;&gt;2.&amp;nbsp; Single page lifecycle&lt;/font&gt;" style="text;html=1;align=center;verticalAlign=middle;whiteSpace=wrap;rounded=0;" vertex="1" parent="1">
          <mxGeometry x="290" y="1400" width="210" height="30" as="geometry" />
        </mxCell>
        <mxCell id="qQ9OFW5MsJUulb6kBdxp-47" value="" style="rounded=0;whiteSpace=wrap;html=1;movable=1;resizable=1;rotatable=1;deletable=1;editable=1;locked=0;connectable=1;" vertex="1" parent="1">
          <mxGeometry x="190" y="1640" width="1166.5" height="1620" as="geometry" />
        </mxCell>
        <mxCell id="qQ9OFW5MsJUulb6kBdxp-48" value="&lt;span style=&quot;line-height: 150%;&quot;&gt;&lt;font style=&quot;font-size: 20px;&quot;&gt;Rejestracja konta&amp;nbsp;&lt;/font&gt;&lt;/span&gt;" style="ellipse;whiteSpace=wrap;html=1;movable=1;resizable=1;rotatable=1;deletable=1;editable=1;locked=0;connectable=1;" vertex="1" parent="1">
          <mxGeometry x="724.5" y="1650" width="167" height="100" as="geometry" />
        </mxCell>
        <mxCell id="qQ9OFW5MsJUulb6kBdxp-49" value="&lt;span style=&quot;line-height: 150%;&quot;&gt;&lt;font style=&quot;font-size: 20px;&quot;&gt;Logowanie do konta&amp;nbsp;&lt;/font&gt;&lt;/span&gt;" style="ellipse;whiteSpace=wrap;html=1;movable=1;resizable=1;rotatable=1;deletable=1;editable=1;locked=0;connectable=1;" vertex="1" parent="1">
          <mxGeometry x="724.5" y="1978" width="167" height="100" as="geometry" />
        </mxCell>
        <mxCell id="qQ9OFW5MsJUulb6kBdxp-50" value="&lt;span style=&quot;line-height: 150%;&quot;&gt;&lt;font style=&quot;font-size: 20px;&quot;&gt;Google OAuth 2.0&amp;nbsp;&lt;/font&gt;&lt;/span&gt;" style="ellipse;whiteSpace=wrap;html=1;movable=1;resizable=1;rotatable=1;deletable=1;editable=1;locked=0;connectable=1;" vertex="1" parent="1">
          <mxGeometry x="724.5" y="1800" width="167" height="100" as="geometry" />
        </mxCell>
        <mxCell id="qQ9OFW5MsJUulb6kBdxp-51" value="&lt;span style=&quot;line-height: 150%;&quot;&gt;&lt;font style=&quot;font-size: 20px;&quot;&gt;Odzyskanie hasła za pomocą e-mail&lt;/font&gt;&lt;/span&gt;" style="ellipse;whiteSpace=wrap;html=1;movable=1;resizable=1;rotatable=1;deletable=1;editable=1;locked=0;connectable=1;" vertex="1" parent="1">
          <mxGeometry x="970" y="1800" width="167" height="100" as="geometry" />
        </mxCell>
        <mxCell id="qQ9OFW5MsJUulb6kBdxp-52" value="&lt;span style=&quot;line-height: 150%;&quot;&gt;&lt;font style=&quot;font-size: 20px;&quot;&gt;Sztuczna inteligencja&lt;/font&gt;&lt;/span&gt;" style="ellipse;whiteSpace=wrap;html=1;movable=1;resizable=1;rotatable=1;deletable=1;editable=1;locked=0;connectable=1;" vertex="1" parent="1">
          <mxGeometry x="810" y="2270" width="167" height="100" as="geometry" />
        </mxCell>
        <mxCell id="qQ9OFW5MsJUulb6kBdxp-53" value="&lt;span style=&quot;line-height: 150%;&quot;&gt;&lt;font style=&quot;font-size: 20px;&quot;&gt;Tworzenie podróży&lt;/font&gt;&lt;/span&gt;" style="ellipse;whiteSpace=wrap;html=1;movable=1;resizable=1;rotatable=1;deletable=1;editable=1;locked=0;connectable=1;" vertex="1" parent="1">
          <mxGeometry x="599" y="2120" width="167" height="100" as="geometry" />
        </mxCell>
        <mxCell id="qQ9OFW5MsJUulb6kBdxp-54" value="&lt;span style=&quot;line-height: 150%;&quot;&gt;&lt;font style=&quot;font-size: 20px;&quot;&gt;Edytowanie podróży&lt;/font&gt;&lt;/span&gt;" style="ellipse;whiteSpace=wrap;html=1;movable=1;resizable=1;rotatable=1;deletable=1;editable=1;locked=0;connectable=1;" vertex="1" parent="1">
          <mxGeometry x="383" y="2320" width="167" height="100" as="geometry" />
        </mxCell>
        <mxCell id="qQ9OFW5MsJUulb6kBdxp-56" value="&lt;span style=&quot;line-height: 150%;&quot;&gt;&lt;font style=&quot;font-size: 20px;&quot;&gt;Usuwanie podróży&lt;/font&gt;&lt;/span&gt;" style="ellipse;whiteSpace=wrap;html=1;movable=1;resizable=1;rotatable=1;deletable=1;editable=1;locked=0;connectable=1;" vertex="1" parent="1">
          <mxGeometry x="1144" y="2370" width="167" height="100" as="geometry" />
        </mxCell>
        <mxCell id="qQ9OFW5MsJUulb6kBdxp-55" value="&lt;span style=&quot;line-height: 150%;&quot;&gt;&lt;font style=&quot;font-size: 20px;&quot;&gt;Usuwanie podróży&lt;/font&gt;&lt;/span&gt;" style="ellipse;whiteSpace=wrap;html=1;" vertex="1" parent="1">
          <mxGeometry x="527.5" y="2120" width="167" height="100" as="geometry" />
        </mxCell>
        <mxCell id="qQ9OFW5MsJUulb6kBdxp-57" value="&lt;span style=&quot;line-height: 150%;&quot;&gt;&lt;font style=&quot;font-size: 20px;&quot;&gt;Przeglądanie podróży&lt;/font&gt;&lt;/span&gt;" style="ellipse;whiteSpace=wrap;html=1;movable=1;resizable=1;rotatable=1;deletable=1;editable=1;locked=0;connectable=1;" vertex="1" parent="1">
          <mxGeometry x="724.5" y="2610" width="167" height="100" as="geometry" />
        </mxCell>
        <mxCell id="qQ9OFW5MsJUulb6kBdxp-58" value="&lt;span style=&quot;line-height: 150%;&quot;&gt;&lt;font style=&quot;font-size: 20px;&quot;&gt;Udostępnianie podróży&lt;/font&gt;&lt;/span&gt;" style="ellipse;whiteSpace=wrap;html=1;movable=1;resizable=1;rotatable=1;deletable=1;editable=1;locked=0;connectable=1;" vertex="1" parent="1">
          <mxGeometry x="1160" y="2610" width="167" height="100" as="geometry" />
        </mxCell>
        <mxCell id="qQ9OFW5MsJUulb6kBdxp-59" value="&lt;span style=&quot;line-height: 150%;&quot;&gt;&lt;font style=&quot;font-size: 20px;&quot;&gt;Czat&lt;/font&gt;&lt;/span&gt;" style="ellipse;whiteSpace=wrap;html=1;movable=1;resizable=1;rotatable=1;deletable=1;editable=1;locked=0;connectable=1;" vertex="1" parent="1">
          <mxGeometry x="630" y="3080" width="167" height="100" as="geometry" />
        </mxCell>
        <mxCell id="qQ9OFW5MsJUulb6kBdxp-60" value="&lt;span style=&quot;line-height: 150%;&quot;&gt;&lt;font style=&quot;font-size: 20px;&quot;&gt;Filtracja podróży&lt;/font&gt;&lt;/span&gt;" style="ellipse;whiteSpace=wrap;html=1;movable=1;resizable=1;rotatable=1;deletable=1;editable=1;locked=0;connectable=1;" vertex="1" parent="1">
          <mxGeometry x="356.5" y="3060" width="167" height="100" as="geometry" />
        </mxCell>
        <mxCell id="qQ9OFW5MsJUulb6kBdxp-61" value="&lt;span style=&quot;line-height: 150%; font-family: &amp;quot;Times New Roman&amp;quot;, serif;&quot;&gt;&lt;font style=&quot;font-size: 20px;&quot;&gt;Usuwanie uczestnika podróży&lt;/font&gt;&lt;/span&gt;" style="ellipse;whiteSpace=wrap;html=1;movable=1;resizable=1;rotatable=1;deletable=1;editable=1;locked=0;connectable=1;" vertex="1" parent="1">
          <mxGeometry x="1153.5" y="2470" width="167" height="100" as="geometry" />
        </mxCell>
        <mxCell id="qQ9OFW5MsJUulb6kBdxp-62" value="&lt;span style=&quot;line-height: 150%; font-family: &amp;quot;Times New Roman&amp;quot;, serif;&quot;&gt;&lt;font style=&quot;font-size: 20px;&quot;&gt;Przyjmowanie lub odrzucanie dołączenia do podróży&lt;/font&gt;&lt;/span&gt;" style="ellipse;whiteSpace=wrap;html=1;movable=1;resizable=1;rotatable=1;deletable=1;editable=1;locked=0;connectable=1;" vertex="1" parent="1">
          <mxGeometry x="1090" y="2750" width="240" height="120" as="geometry" />
        </mxCell>
        <mxCell id="qQ9OFW5MsJUulb6kBdxp-63" value="&lt;span style=&quot;line-height: 150%; font-family: &amp;quot;Times New Roman&amp;quot;, serif;&quot;&gt;&lt;font style=&quot;font-size: 20px;&quot;&gt;Lista planów podróży&lt;/font&gt;&lt;/span&gt;" style="ellipse;whiteSpace=wrap;html=1;movable=1;resizable=1;rotatable=1;deletable=1;editable=1;locked=0;connectable=1;" vertex="1" parent="1">
          <mxGeometry x="320" y="2600" width="240" height="120" as="geometry" />
        </mxCell>
        <mxCell id="qQ9OFW5MsJUulb6kBdxp-64" value="&lt;font face=&quot;Times New Roman, serif&quot;&gt;&lt;span style=&quot;font-size: 20px;&quot;&gt;Karta trasy podróży&lt;/span&gt;&lt;/font&gt;" style="ellipse;whiteSpace=wrap;html=1;movable=1;resizable=1;rotatable=1;deletable=1;editable=1;locked=0;connectable=1;" vertex="1" parent="1">
          <mxGeometry x="977" y="2980" width="167" height="100" as="geometry" />
        </mxCell>
        <mxCell id="qQ9OFW5MsJUulb6kBdxp-65" value="&lt;span style=&quot;line-height: 150%; font-family: &amp;quot;Times New Roman&amp;quot;, serif;&quot;&gt;&lt;font style=&quot;font-size: 20px;&quot;&gt;Pisownia Markdown&lt;/font&gt;&lt;/span&gt;" style="ellipse;whiteSpace=wrap;html=1;movable=1;resizable=1;rotatable=1;deletable=1;editable=1;locked=0;connectable=1;" vertex="1" parent="1">
          <mxGeometry x="320" y="1978" width="167" height="100" as="geometry" />
        </mxCell>
        <mxCell id="qQ9OFW5MsJUulb6kBdxp-66" value="&lt;span style=&quot;font-size:12.0pt;line-height:150%;&lt;br/&gt;font-family:&amp;quot;Times New Roman&amp;quot;,serif;mso-fareast-font-family:Aptos;mso-fareast-theme-font:&lt;br/&gt;minor-latin;mso-bidi-theme-font:minor-bidi;mso-ansi-language:PL;mso-fareast-language:&lt;br/&gt;EN-US;mso-bidi-language:AR-SA&quot;&gt;Uczestnik podróży&lt;/span&gt;" style="shape=umlActor;verticalLabelPosition=bottom;verticalAlign=top;html=1;outlineConnect=0;" vertex="1" parent="1">
          <mxGeometry x="1430" y="2880" width="120" height="196" as="geometry" />
        </mxCell>
        <mxCell id="qQ9OFW5MsJUulb6kBdxp-68" value="&lt;span style=&quot;font-size:12.0pt;line-height:150%;&lt;br/&gt;font-family:&amp;quot;Times New Roman&amp;quot;,serif;mso-fareast-font-family:Aptos;mso-fareast-theme-font:&lt;br/&gt;minor-latin;mso-bidi-theme-font:minor-bidi;mso-ansi-language:PL;mso-fareast-language:&lt;br/&gt;EN-US;mso-bidi-language:AR-SA&quot;&gt;Niezalogowany użytkownik&lt;/span&gt;&lt;span style=&quot;font-family: &amp;quot;Times New Roman&amp;quot;, serif; font-size: 12pt; background-color: transparent; color: light-dark(rgb(0, 0, 0), rgb(255, 255, 255));&quot;&gt;&amp;nbsp;&lt;/span&gt;" style="shape=umlActor;verticalLabelPosition=bottom;verticalAlign=top;html=1;outlineConnect=0;" vertex="1" parent="1">
          <mxGeometry x="1420" y="1830" width="120" height="196" as="geometry" />
        </mxCell>
        <mxCell id="qQ9OFW5MsJUulb6kBdxp-69" value="&lt;span style=&quot;font-size:12.0pt;line-height:150%;&lt;br/&gt;font-family:&amp;quot;Times New Roman&amp;quot;,serif;mso-fareast-font-family:Aptos;mso-fareast-theme-font:&lt;br/&gt;minor-latin;mso-bidi-theme-font:minor-bidi;mso-ansi-language:PL;mso-fareast-language:&lt;br/&gt;EN-US;mso-bidi-language:AR-SA&quot;&gt;Zalogowany użytkownik&lt;/span&gt;&lt;span style=&quot;font-family: &amp;quot;Times New Roman&amp;quot;, serif; font-size: 12pt; background-color: transparent; color: light-dark(rgb(0, 0, 0), rgb(255, 255, 255));&quot;&gt;&amp;nbsp;&lt;/span&gt;" style="shape=umlActor;verticalLabelPosition=bottom;verticalAlign=top;html=1;outlineConnect=0;" vertex="1" parent="1">
          <mxGeometry x="1430" y="2142" width="120" height="196" as="geometry" />
        </mxCell>
        <mxCell id="qQ9OFW5MsJUulb6kBdxp-70" value="&lt;span style=&quot;font-size:12.0pt;line-height:150%;&lt;br/&gt;font-family:&amp;quot;Times New Roman&amp;quot;,serif;mso-fareast-font-family:Aptos;mso-fareast-theme-font:&lt;br/&gt;minor-latin;mso-bidi-theme-font:minor-bidi;mso-ansi-language:PL;mso-fareast-language:&lt;br/&gt;EN-US;mso-bidi-language:AR-SA&quot;&gt;Twórca podróży&lt;/span&gt;" style="shape=umlActor;verticalLabelPosition=bottom;verticalAlign=top;html=1;outlineConnect=0;" vertex="1" parent="1">
          <mxGeometry x="1430" y="2530" width="120" height="196" as="geometry" />
        </mxCell>
        <mxCell id="qQ9OFW5MsJUulb6kBdxp-71" value="&lt;span style=&quot;font-size:12.0pt;line-height:150%;&lt;br/&gt;font-family:&amp;quot;Times New Roman&amp;quot;,serif;mso-fareast-font-family:Aptos;mso-fareast-theme-font:&lt;br/&gt;minor-latin;mso-bidi-theme-font:minor-bidi;mso-ansi-language:PL;mso-fareast-language:&lt;br/&gt;EN-US;mso-bidi-language:AR-SA&quot;&gt;Biuro podróży&lt;/span&gt;" style="shape=umlActor;verticalLabelPosition=bottom;verticalAlign=top;html=1;outlineConnect=0;" vertex="1" parent="1">
          <mxGeometry x="-80" y="2420" width="120" height="196" as="geometry" />
        </mxCell>
        <mxCell id="qQ9OFW5MsJUulb6kBdxp-107" value="&lt;font style=&quot;font-size: 20px;&quot;&gt;&amp;lt;&amp;lt;extend&amp;gt;&amp;gt;&lt;/font&gt;" style="html=1;verticalAlign=bottom;endArrow=open;dashed=1;endSize=8;curved=1;rounded=0;exitX=0;exitY=0.5;exitDx=0;exitDy=0;entryX=0.5;entryY=0;entryDx=0;entryDy=0;edgeStyle=orthogonalEdgeStyle;movable=1;resizable=1;rotatable=1;deletable=1;editable=1;locked=0;connectable=1;" edge="1" parent="1" source="qQ9OFW5MsJUulb6kBdxp-56" target="qQ9OFW5MsJUulb6kBdxp-57">
          <mxGeometry x="-0.2243" y="30" relative="1" as="geometry">
            <mxPoint x="920" y="2600" as="sourcePoint" />
            <mxPoint x="840" y="2600" as="targetPoint" />
            <mxPoint as="offset" />
          </mxGeometry>
        </mxCell>
        <mxCell id="qQ9OFW5MsJUulb6kBdxp-108" value="&lt;font style=&quot;font-size: 20px;&quot;&gt;&amp;lt;&amp;lt;extend&amp;gt;&amp;gt;&lt;/font&gt;" style="html=1;verticalAlign=bottom;endArrow=open;dashed=1;endSize=8;curved=1;rounded=0;exitX=0;exitY=0.5;exitDx=0;exitDy=0;entryX=1;entryY=0;entryDx=0;entryDy=0;edgeStyle=orthogonalEdgeStyle;movable=1;resizable=1;rotatable=1;deletable=1;editable=1;locked=0;connectable=1;" edge="1" parent="1" source="qQ9OFW5MsJUulb6kBdxp-61" target="qQ9OFW5MsJUulb6kBdxp-57">
          <mxGeometry x="-0.2243" y="30" relative="1" as="geometry">
            <mxPoint x="1104" y="2560" as="sourcePoint" />
            <mxPoint x="768" y="2750" as="targetPoint" />
            <mxPoint as="offset" />
          </mxGeometry>
        </mxCell>
        <mxCell id="qQ9OFW5MsJUulb6kBdxp-109" value="&lt;font style=&quot;font-size: 20px;&quot;&gt;&amp;lt;&amp;lt;extend&amp;gt;&amp;gt;&lt;/font&gt;" style="html=1;verticalAlign=bottom;endArrow=open;dashed=1;endSize=8;curved=1;rounded=0;exitX=0;exitY=0.5;exitDx=0;exitDy=0;entryX=1;entryY=0.5;entryDx=0;entryDy=0;edgeStyle=orthogonalEdgeStyle;movable=1;resizable=1;rotatable=1;deletable=1;editable=1;locked=0;connectable=1;" edge="1" parent="1" source="qQ9OFW5MsJUulb6kBdxp-58" target="qQ9OFW5MsJUulb6kBdxp-57">
          <mxGeometry x="-0.2243" y="30" relative="1" as="geometry">
            <mxPoint x="1163" y="2530" as="sourcePoint" />
            <mxPoint x="877" y="2635" as="targetPoint" />
            <mxPoint as="offset" />
          </mxGeometry>
        </mxCell>
        <mxCell id="qQ9OFW5MsJUulb6kBdxp-110" value="&lt;font style=&quot;font-size: 20px;&quot;&gt;&amp;lt;&amp;lt;extend&amp;gt;&amp;gt;&lt;/font&gt;" style="html=1;verticalAlign=bottom;endArrow=open;dashed=1;endSize=8;curved=1;rounded=0;exitX=0;exitY=0.5;exitDx=0;exitDy=0;entryX=0.765;entryY=0.914;entryDx=0;entryDy=0;edgeStyle=orthogonalEdgeStyle;entryPerimeter=0;movable=1;resizable=1;rotatable=1;deletable=1;editable=1;locked=0;connectable=1;" edge="1" parent="1" source="qQ9OFW5MsJUulb6kBdxp-62" target="qQ9OFW5MsJUulb6kBdxp-57">
          <mxGeometry x="-0.4802" y="10" relative="1" as="geometry">
            <mxPoint x="1137" y="2760" as="sourcePoint" />
            <mxPoint x="869" y="2760" as="targetPoint" />
            <mxPoint as="offset" />
          </mxGeometry>
        </mxCell>
        <mxCell id="qQ9OFW5MsJUulb6kBdxp-111" value="&lt;font style=&quot;font-size: 20px;&quot;&gt;&amp;lt;&amp;lt;extend&amp;gt;&amp;gt;&lt;/font&gt;" style="html=1;verticalAlign=bottom;endArrow=open;dashed=1;endSize=8;curved=1;rounded=0;exitX=0;exitY=0.5;exitDx=0;exitDy=0;entryX=0.5;entryY=1;entryDx=0;entryDy=0;edgeStyle=orthogonalEdgeStyle;movable=1;resizable=1;rotatable=1;deletable=1;editable=1;locked=0;connectable=1;" edge="1" parent="1" source="qQ9OFW5MsJUulb6kBdxp-64" target="qQ9OFW5MsJUulb6kBdxp-57">
          <mxGeometry x="-0.6442" y="-30" relative="1" as="geometry">
            <mxPoint x="1035" y="2898.57" as="sourcePoint" />
            <mxPoint x="797" y="2789.57" as="targetPoint" />
            <mxPoint as="offset" />
          </mxGeometry>
        </mxCell>
        <mxCell id="qQ9OFW5MsJUulb6kBdxp-112" value="&lt;font style=&quot;font-size: 20px;&quot;&gt;&amp;lt;&amp;lt;extend&amp;gt;&amp;gt;&lt;/font&gt;" style="html=1;verticalAlign=bottom;endArrow=open;dashed=1;endSize=8;curved=1;rounded=0;exitX=0.5;exitY=0;exitDx=0;exitDy=0;entryX=0.211;entryY=0.88;entryDx=0;entryDy=0;edgeStyle=orthogonalEdgeStyle;entryPerimeter=0;movable=1;resizable=1;rotatable=1;deletable=1;editable=1;locked=0;connectable=1;" edge="1" parent="1" source="qQ9OFW5MsJUulb6kBdxp-59" target="qQ9OFW5MsJUulb6kBdxp-57">
          <mxGeometry x="-0.6442" y="-30" relative="1" as="geometry">
            <mxPoint x="899" y="3090" as="sourcePoint" />
            <mxPoint x="730" y="2770" as="targetPoint" />
            <mxPoint as="offset" />
          </mxGeometry>
        </mxCell>
        <mxCell id="qQ9OFW5MsJUulb6kBdxp-113" value="&lt;font style=&quot;font-size: 20px;&quot;&gt;&amp;lt;&amp;lt;extend&amp;gt;&amp;gt;&lt;/font&gt;" style="html=1;verticalAlign=bottom;endArrow=open;dashed=1;endSize=8;curved=1;rounded=0;exitX=0.5;exitY=0;exitDx=0;exitDy=0;entryX=0.5;entryY=1;entryDx=0;entryDy=0;edgeStyle=orthogonalEdgeStyle;movable=1;resizable=1;rotatable=1;deletable=1;editable=1;locked=0;connectable=1;" edge="1" parent="1" source="qQ9OFW5MsJUulb6kBdxp-60" target="qQ9OFW5MsJUulb6kBdxp-63">
          <mxGeometry x="-0.6442" y="-30" relative="1" as="geometry">
            <mxPoint x="443" y="3122" as="sourcePoint" />
            <mxPoint x="489" y="2740" as="targetPoint" />
            <mxPoint as="offset" />
          </mxGeometry>
        </mxCell>
        <mxCell id="qQ9OFW5MsJUulb6kBdxp-114" value="&lt;span style=&quot;font-size: 20px;&quot;&gt;&amp;lt;&amp;lt;extend&amp;gt;&amp;gt;&lt;/span&gt;" style="html=1;verticalAlign=bottom;endArrow=open;dashed=1;endSize=8;curved=1;rounded=0;exitX=0;exitY=0.5;exitDx=0;exitDy=0;entryX=0.5;entryY=1;entryDx=0;entryDy=0;edgeStyle=orthogonalEdgeStyle;movable=1;resizable=1;rotatable=1;deletable=1;editable=1;locked=0;connectable=1;" edge="1" parent="1" source="qQ9OFW5MsJUulb6kBdxp-52" target="qQ9OFW5MsJUulb6kBdxp-53">
          <mxGeometry x="-0.6442" y="-30" relative="1" as="geometry">
            <mxPoint x="670" y="2610" as="sourcePoint" />
            <mxPoint x="670" y="2270" as="targetPoint" />
            <mxPoint as="offset" />
          </mxGeometry>
        </mxCell>
        <mxCell id="qQ9OFW5MsJUulb6kBdxp-115" value="&lt;span style=&quot;font-size: 20px;&quot;&gt;&amp;lt;&amp;lt;include&amp;gt;&amp;gt;&lt;/span&gt;" style="html=1;verticalAlign=bottom;endArrow=open;dashed=1;endSize=8;curved=1;rounded=0;exitX=0.5;exitY=0;exitDx=0;exitDy=0;entryX=1;entryY=0.5;entryDx=0;entryDy=0;edgeStyle=orthogonalEdgeStyle;movable=1;resizable=1;rotatable=1;deletable=1;editable=1;locked=0;connectable=1;" edge="1" parent="1" source="qQ9OFW5MsJUulb6kBdxp-52" target="qQ9OFW5MsJUulb6kBdxp-53">
          <mxGeometry x="-0.6442" y="-30" relative="1" as="geometry">
            <mxPoint x="987" y="2250" as="sourcePoint" />
            <mxPoint x="860" y="2150" as="targetPoint" />
            <mxPoint as="offset" />
          </mxGeometry>
        </mxCell>
        <mxCell id="qQ9OFW5MsJUulb6kBdxp-116" value="&lt;span style=&quot;line-height: 150%;&quot;&gt;&lt;font style=&quot;font-size: 20px;&quot;&gt;Sztuczna inteligencja&lt;/font&gt;&lt;/span&gt;" style="ellipse;whiteSpace=wrap;html=1;movable=1;resizable=1;rotatable=1;deletable=1;editable=1;locked=0;connectable=1;" vertex="1" parent="1">
          <mxGeometry x="1090" y="3130" width="167" height="100" as="geometry" />
        </mxCell>
        <mxCell id="qQ9OFW5MsJUulb6kBdxp-118" value="&lt;font style=&quot;font-size: 20px;&quot;&gt;&amp;lt;&amp;lt;extend&amp;gt;&amp;gt;&lt;/font&gt;" style="html=1;verticalAlign=bottom;endArrow=open;dashed=1;endSize=8;curved=1;rounded=0;entryX=1;entryY=0.5;entryDx=0;entryDy=0;edgeStyle=orthogonalEdgeStyle;movable=1;resizable=1;rotatable=1;deletable=1;editable=1;locked=0;connectable=1;" edge="1" parent="1" target="qQ9OFW5MsJUulb6kBdxp-59">
          <mxGeometry x="-0.5923" relative="1" as="geometry">
            <mxPoint x="1090" y="3180" as="sourcePoint" />
            <mxPoint x="940" y="2946" as="targetPoint" />
            <mxPoint as="offset" />
          </mxGeometry>
        </mxCell>
        <mxCell id="qQ9OFW5MsJUulb6kBdxp-119" value="&lt;span style=&quot;font-size: 20px;&quot;&gt;&amp;lt;&amp;lt;extend&amp;gt;&amp;gt;&lt;/span&gt;" style="html=1;verticalAlign=bottom;endArrow=open;dashed=1;endSize=8;curved=1;rounded=0;entryX=1;entryY=0.5;entryDx=0;entryDy=0;edgeStyle=orthogonalEdgeStyle;movable=1;resizable=1;rotatable=1;deletable=1;editable=1;locked=0;connectable=1;" edge="1" parent="1" target="qQ9OFW5MsJUulb6kBdxp-49">
          <mxGeometry x="0.0059" relative="1" as="geometry">
            <mxPoint x="970" y="1850" as="sourcePoint" />
            <mxPoint x="1017" y="1950" as="targetPoint" />
            <mxPoint as="offset" />
          </mxGeometry>
        </mxCell>
        <mxCell id="qQ9OFW5MsJUulb6kBdxp-120" value="&lt;span style=&quot;font-size: 20px;&quot;&gt;&amp;lt;&amp;lt;include&amp;gt;&amp;gt;&lt;/span&gt;" style="html=1;verticalAlign=bottom;endArrow=open;dashed=1;endSize=8;curved=1;rounded=0;exitX=0.5;exitY=1;exitDx=0;exitDy=0;entryX=0.5;entryY=0;entryDx=0;entryDy=0;edgeStyle=orthogonalEdgeStyle;movable=1;resizable=1;rotatable=1;deletable=1;editable=1;locked=0;connectable=1;" edge="1" parent="1" source="qQ9OFW5MsJUulb6kBdxp-65" target="qQ9OFW5MsJUulb6kBdxp-54">
          <mxGeometry x="-0.6442" y="-30" relative="1" as="geometry">
            <mxPoint x="394" y="2290" as="sourcePoint" />
            <mxPoint x="267" y="2190" as="targetPoint" />
            <mxPoint as="offset" />
          </mxGeometry>
        </mxCell>
        <mxCell id="qQ9OFW5MsJUulb6kBdxp-121" value="&lt;span style=&quot;font-size: 20px;&quot;&gt;&amp;lt;&amp;lt;include&amp;gt;&amp;gt;&lt;/span&gt;" style="html=1;verticalAlign=bottom;endArrow=open;dashed=1;endSize=8;curved=1;rounded=0;exitX=1;exitY=0.5;exitDx=0;exitDy=0;entryX=0;entryY=0.5;entryDx=0;entryDy=0;edgeStyle=orthogonalEdgeStyle;movable=1;resizable=1;rotatable=1;deletable=1;editable=1;locked=0;connectable=1;" edge="1" parent="1" source="qQ9OFW5MsJUulb6kBdxp-65" target="qQ9OFW5MsJUulb6kBdxp-53">
          <mxGeometry x="-0.6442" y="-30" relative="1" as="geometry">
            <mxPoint x="490" y="2049" as="sourcePoint" />
            <mxPoint x="553" y="2291" as="targetPoint" />
            <mxPoint as="offset" />
          </mxGeometry>
        </mxCell>
        <mxCell id="qQ9OFW5MsJUulb6kBdxp-122" value="&lt;span style=&quot;font-size: 20px;&quot;&gt;&amp;lt;&amp;lt;extend&amp;gt;&amp;gt;&lt;/span&gt;" style="html=1;verticalAlign=bottom;endArrow=open;dashed=1;endSize=8;curved=1;rounded=0;exitX=0;exitY=0.5;exitDx=0;exitDy=0;entryX=1;entryY=0.5;entryDx=0;entryDy=0;edgeStyle=orthogonalEdgeStyle;movable=1;resizable=1;rotatable=1;deletable=1;editable=1;locked=0;connectable=1;" edge="1" parent="1" source="qQ9OFW5MsJUulb6kBdxp-51" target="qQ9OFW5MsJUulb6kBdxp-48">
          <mxGeometry x="0.0441" relative="1" as="geometry">
            <mxPoint x="1154" y="2060" as="sourcePoint" />
            <mxPoint x="1027" y="1960" as="targetPoint" />
            <mxPoint y="1" as="offset" />
          </mxGeometry>
        </mxCell>
        <mxCell id="qQ9OFW5MsJUulb6kBdxp-123" value="&lt;span style=&quot;font-size: 20px;&quot;&gt;&amp;lt;&amp;lt;extend&amp;gt;&amp;gt;&lt;/span&gt;" style="html=1;verticalAlign=bottom;endArrow=open;dashed=1;endSize=8;curved=1;rounded=0;edgeStyle=orthogonalEdgeStyle;exitX=0.5;exitY=1;exitDx=0;exitDy=0;movable=1;resizable=1;rotatable=1;deletable=1;editable=1;locked=0;connectable=1;" edge="1" parent="1" source="qQ9OFW5MsJUulb6kBdxp-50" target="qQ9OFW5MsJUulb6kBdxp-49">
          <mxGeometry x="0.0059" relative="1" as="geometry">
            <mxPoint x="590" y="1910" as="sourcePoint" />
            <mxPoint x="902" y="2038" as="targetPoint" />
            <mxPoint as="offset" />
          </mxGeometry>
        </mxCell>
        <mxCell id="qQ9OFW5MsJUulb6kBdxp-125" value="&lt;span style=&quot;font-size: 20px;&quot;&gt;&amp;lt;&amp;lt;extend&amp;gt;&amp;gt;&lt;/span&gt;" style="html=1;verticalAlign=bottom;endArrow=open;dashed=1;endSize=8;curved=1;rounded=0;edgeStyle=orthogonalEdgeStyle;exitX=0.5;exitY=0;exitDx=0;exitDy=0;movable=1;resizable=1;rotatable=1;deletable=1;editable=1;locked=0;connectable=1;" edge="1" parent="1" source="qQ9OFW5MsJUulb6kBdxp-50" target="qQ9OFW5MsJUulb6kBdxp-48">
          <mxGeometry x="-0.6" y="38" relative="1" as="geometry">
            <mxPoint x="810" y="1810" as="sourcePoint" />
            <mxPoint x="902" y="1710" as="targetPoint" />
            <mxPoint as="offset" />
          </mxGeometry>
        </mxCell>
        <mxCell id="qQ9OFW5MsJUulb6kBdxp-126" value="&lt;font style=&quot;font-size: 20px;&quot;&gt;&amp;lt;&amp;lt;extend&amp;gt;&amp;gt;&lt;/font&gt;" style="html=1;verticalAlign=bottom;endArrow=open;dashed=1;endSize=8;curved=1;rounded=0;exitX=0;exitY=0.5;exitDx=0;exitDy=0;entryX=1;entryY=0.5;entryDx=0;entryDy=0;edgeStyle=orthogonalEdgeStyle;movable=1;resizable=1;rotatable=1;deletable=1;editable=1;locked=0;connectable=1;" edge="1" parent="1" source="qQ9OFW5MsJUulb6kBdxp-57" target="qQ9OFW5MsJUulb6kBdxp-63">
          <mxGeometry x="-0.0942" relative="1" as="geometry">
            <mxPoint x="620" y="2990" as="sourcePoint" />
            <mxPoint x="620" y="2650" as="targetPoint" />
            <mxPoint as="offset" />
          </mxGeometry>
        </mxCell>
      </root>
    </mxGraphModel>
  </diagram>
</mxfile>
